<?xml version="1.0" standalone="no"?>
<!DOCTYPE svg PUBLIC "-//W3C//DTD SVG 20010904//EN"
 "http://www.w3.org/TR/2001/REC-SVG-20010904/DTD/svg10.dtd">
<svg version="1.0" xmlns="http://www.w3.org/2000/svg"
 width="1097.000000pt" height="1280.000000pt" viewBox="0 0 1097.000000 1280.000000"
 preserveAspectRatio="xMidYMid meet">
<metadata>
Created by potrace 1.15, written by Peter Selinger 2001-2017
</metadata>
<g transform="translate(0.000000,1280.000000) scale(0.100000,-0.100000)"
fill="#000000" stroke="none">
<path d="M610 11658 l1 -1143 829 -625 829 -625 0 -2525 1 -2525 -710 -755
-709 -755 -1 -727 0 -728 -425 0 -425 0 0 -625 0 -625 5485 0 5485 0 0 625 0
625 -425 0 -425 0 0 723 -1 722 -709 755 -710 755 2 2529 3 2530 827 625 827
626 1 1143 0 1142 -965 0 -965 0 0 -510 0 -510 -880 0 -880 0 0 510 0 510
-1185 0 -1185 0 0 -510 0 -510 -880 0 -880 0 0 510 0 510 -965 0 -965 0 0
-1142z"/>
</g>
</svg>
