<?xml version="1.0" standalone="no"?>
<!DOCTYPE svg PUBLIC "-//W3C//DTD SVG 20010904//EN"
 "http://www.w3.org/TR/2001/REC-SVG-20010904/DTD/svg10.dtd">
<svg version="1.0" xmlns="http://www.w3.org/2000/svg"
 width="673.000000pt" height="1280.000000pt" viewBox="0 0 673.000000 1280.000000"
 preserveAspectRatio="xMidYMid meet">
<metadata>
Created by potrace 1.15, written by Peter Selinger 2001-2017
</metadata>
<g transform="translate(0.000000,1280.000000) scale(0.100000,-0.100000)"
fill="#000000" stroke="none">
<path d="M3940 12794 c-94 -11 -160 -29 -219 -60 -37 -19 -93 -39 -126 -45
-166 -31 -269 -89 -372 -206 -136 -155 -160 -169 -406 -229 -330 -82 -1147
-262 -1717 -380 -519 -107 -604 -138 -712 -259 -123 -138 -232 -339 -273 -505
-15 -58 -41 -143 -59 -190 -58 -148 -69 -242 -41 -337 17 -58 36 -77 89 -92
51 -13 106 -66 106 -101 0 -17 -21 -54 -55 -99 -80 -106 -89 -168 -33 -229 27
-29 46 -37 160 -68 110 -30 186 -64 318 -144 213 -130 347 -160 414 -94 13 14
49 76 80 138 93 191 203 287 311 270 35 -5 48 -2 62 11 14 15 28 16 92 11 243
-21 549 -94 697 -166 215 -104 384 -283 384 -405 0 -75 -44 -129 -439 -535
-630 -649 -932 -984 -1198 -1330 -250 -326 -316 -486 -316 -770 0 -172 26
-305 93 -472 108 -272 362 -615 640 -866 138 -125 205 -174 321 -231 140 -70
212 -122 325 -235 113 -114 165 -188 205 -291 108 -278 25 -559 -245 -831
-100 -100 -183 -165 -358 -282 -75 -50 -139 -96 -142 -101 -4 -6 5 -9 21 -8
41 3 42 -28 2 -69 -44 -46 -83 -54 -231 -52 -110 1 -130 -1 -170 -21 -91 -44
-98 -129 -16 -207 24 -23 71 -60 105 -83 103 -68 141 -137 109 -198 -19 -37
-45 -55 -116 -78 -173 -55 -371 -237 -470 -434 -59 -115 -88 -260 -96 -476 -8
-186 5 -283 47 -366 18 -37 43 -115 60 -193 19 -86 42 -156 65 -203 20 -40 34
-79 31 -87 -9 -23 -63 -59 -212 -141 -255 -141 -375 -224 -375 -259 0 -8 13
-24 30 -36 27 -19 29 -24 23 -65 -4 -36 -1 -52 20 -88 21 -36 41 -52 104 -85
164 -85 486 -204 673 -248 58 -14 159 -42 225 -64 149 -48 225 -63 438 -90 93
-11 189 -25 213 -30 79 -18 227 -29 704 -55 650 -34 875 -40 995 -26 132 15
429 37 750 56 307 18 322 19 575 51 341 43 686 107 860 159 47 13 132 37 190
51 58 14 130 33 160 41 112 31 373 177 447 251 57 58 57 155 -1 239 -45 66
-132 129 -360 263 -108 63 -196 118 -196 123 0 4 18 63 40 130 73 226 96 397
87 660 -10 306 -64 465 -233 677 -113 143 -248 250 -466 370 l-97 53 109 116
c146 156 190 211 190 237 0 44 -85 100 -371 244 -289 147 -445 242 -586 361
-263 221 -387 479 -354 732 20 149 66 262 146 360 56 69 81 124 91 197 8 67
26 88 119 143 39 22 113 74 165 115 174 137 604 413 698 448 93 35 239 135
422 290 102 86 170 157 234 244 69 94 89 137 89 195 0 81 -33 134 -194 315
-175 196 -301 424 -351 630 -17 74 -20 117 -20 335 1 138 6 286 11 329 10 70
15 83 42 105 44 38 50 94 15 160 -14 28 -26 53 -26 55 0 2 29 33 65 68 l65 64
-3 90 c-2 87 -1 91 33 144 34 53 35 57 36 160 1 84 5 115 22 153 50 111 100
548 117 1012 8 221 0 267 -56 316 -44 39 -44 49 -3 81 28 23 54 78 54 117 0
42 -30 98 -75 141 -20 19 -43 48 -51 63 -14 26 -13 31 4 60 46 78 34 140 -44
227 -58 65 -59 67 -45 103 15 40 -7 105 -51 149 -21 21 -47 38 -57 38 -46 0
-52 9 -45 74 5 52 2 67 -18 106 -18 32 -34 48 -57 56 l-33 11 48 39 c116 95
135 174 65 281 -55 85 -77 93 -275 103 -174 9 -204 16 -283 66 -81 51 -124 71
-174 78 -25 4 -81 25 -125 49 -78 41 -81 41 -184 42 -119 1 -130 4 -220 71
-112 82 -131 87 -395 90 -126 1 -246 0 -265 -2z"/>
</g>
</svg>
