<?xml version="1.0" standalone="no"?>
<!DOCTYPE svg PUBLIC "-//W3C//DTD SVG 20010904//EN"
 "http://www.w3.org/TR/2001/REC-SVG-20010904/DTD/svg10.dtd">
<svg version="1.0" xmlns="http://www.w3.org/2000/svg"
 width="640.000000pt" height="1280.000000pt" viewBox="0 0 640.000000 1280.000000"
 preserveAspectRatio="xMidYMid meet">
<metadata>
Created by potrace 1.15, written by Peter Selinger 2001-2017
</metadata>
<g transform="translate(0.000000,1280.000000) scale(0.100000,-0.100000)"
fill="#607d8b" stroke="none">
<path d="M3015 12742 c-50 -31 -120 -75 -156 -98 l-66 -41 28 -139 c16 -76 28
-148 29 -159 0 -20 -7 -20 -282 -20 l-283 0 1 -366 1 -367 59 -76 59 -76 136
0 c75 0 138 -3 141 -6 3 -3 1 -20 -5 -39 -9 -32 -13 -34 -66 -40 -31 -4 -121
-17 -200 -31 -464 -79 -784 -223 -886 -399 -29 -50 -55 -148 -55 -208 0 -152
85 -409 293 -892 222 -514 285 -663 302 -708 l18 -47 -52 -55 c-130 -138 -122
-269 26 -405 36 -33 61 -60 55 -60 -6 0 -51 -27 -101 -60 -93 -62 -155 -124
-198 -197 -19 -33 -42 -51 -101 -83 -95 -51 -209 -137 -263 -199 -86 -97 -129
-223 -110 -326 48 -256 370 -479 876 -604 l110 -27 8 -80 c13 -123 0 -913 -17
-1124 -49 -576 -123 -1038 -253 -1578 l-37 -154 -104 -48 c-168 -80 -291 -180
-343 -281 -27 -54 -42 -197 -28 -278 5 -31 10 -112 10 -181 1 -201 -40 -336
-139 -458 -65 -80 -125 -132 -292 -257 -297 -222 -409 -366 -471 -607 -21 -78
-22 -113 -26 -560 l-5 -478 30 -58 c50 -101 99 -166 192 -256 257 -247 674
-423 1250 -526 714 -128 1604 -116 2329 31 730 147 1195 401 1315 717 20 55
21 71 21 512 l0 455 -39 100 c-77 200 -171 356 -305 505 -34 39 -140 140 -235
225 -200 179 -273 265 -331 390 -53 112 -74 198 -85 344 -7 93 -6 127 7 182
14 57 15 76 4 123 -32 143 -174 273 -409 375 l-87 37 -47 175 c-137 506 -228
1015 -274 1524 -22 239 -23 899 -2 1099 l13 129 123 32 c429 113 717 287 820
494 34 69 37 82 37 160 0 76 -4 94 -32 154 -54 115 -182 232 -350 323 -52 28
-78 49 -93 76 -47 83 -138 165 -283 252 l-28 17 45 36 c24 19 62 59 83 90 32
47 38 64 41 122 5 82 -19 139 -84 207 l-44 44 54 148 c30 81 115 302 189 492
153 390 252 668 291 815 15 55 41 126 58 159 94 181 6 334 -271 472 -189 93
-531 180 -822 209 -64 7 -67 8 -73 37 -3 17 -6 34 -6 39 0 5 83 9 185 9 l185
0 0 375 c0 211 -4 375 -9 375 -5 0 -35 32 -66 70 l-57 70 -164 0 c-90 0 -164
3 -164 7 0 4 10 42 21 85 l21 78 -32 33 c-17 17 -46 51 -63 74 -24 31 -72 64
-199 137 -92 53 -171 96 -175 95 -5 0 -49 -26 -98 -57z"/>
</g>
</svg>
